<mxfile host="app.diagrams.net" modified="2022-06-12T07:45:29.796Z" agent="5.0 (Windows NT 10.0; WOW64) AppleWebKit/537.36 (KHTML, like Gecko) Chrome/70.0.3538.25 Safari/537.36 Core/1.70.3880.400 QQBrowser/10.8.4554.400" etag="hli-6hdDilLdrY4NnBri" version="19.0.3" type="github">
  <diagram id="L_aKlXi5Ss0681hLugyA" name="第 1 页">
    <mxGraphModel dx="702" dy="529" grid="1" gridSize="10" guides="1" tooltips="1" connect="1" arrows="1" fold="1" page="1" pageScale="1" pageWidth="827" pageHeight="1169" math="0" shadow="0">
      <root>
        <mxCell id="0" />
        <mxCell id="1" parent="0" />
        <mxCell id="Kyu8l-b_ZJ1D1ARl4iH5-7" style="edgeStyle=none;rounded=0;orthogonalLoop=1;jettySize=auto;html=1;exitX=0.5;exitY=1;exitDx=0;exitDy=0;entryX=0.5;entryY=0;entryDx=0;entryDy=0;fontSize=15;endArrow=none;endFill=0;" edge="1" parent="1" source="Kyu8l-b_ZJ1D1ARl4iH5-1" target="Kyu8l-b_ZJ1D1ARl4iH5-4">
          <mxGeometry relative="1" as="geometry" />
        </mxCell>
        <mxCell id="Kyu8l-b_ZJ1D1ARl4iH5-8" style="edgeStyle=none;rounded=0;orthogonalLoop=1;jettySize=auto;html=1;exitX=0.5;exitY=1;exitDx=0;exitDy=0;entryX=0.5;entryY=0;entryDx=0;entryDy=0;fontSize=15;endArrow=none;endFill=0;" edge="1" parent="1" source="Kyu8l-b_ZJ1D1ARl4iH5-1" target="Kyu8l-b_ZJ1D1ARl4iH5-5">
          <mxGeometry relative="1" as="geometry">
            <Array as="points">
              <mxPoint x="380" y="150" />
              <mxPoint x="540" y="150" />
            </Array>
          </mxGeometry>
        </mxCell>
        <mxCell id="Kyu8l-b_ZJ1D1ARl4iH5-1" value="&lt;font style=&quot;font-size: 15px;&quot;&gt;雪糕店铺&lt;/font&gt;" style="rounded=0;whiteSpace=wrap;html=1;fillColor=#d5e8d4;strokeColor=#82b366;" vertex="1" parent="1">
          <mxGeometry x="320" y="60" width="120" height="60" as="geometry" />
        </mxCell>
        <mxCell id="Kyu8l-b_ZJ1D1ARl4iH5-3" value="&lt;font style=&quot;font-size: 15px;&quot;&gt;会员登录&lt;/font&gt;" style="rounded=0;whiteSpace=wrap;html=1;fillColor=#d5e8d4;strokeColor=#82b366;" vertex="1" parent="1">
          <mxGeometry x="160" y="200" width="120" height="60" as="geometry" />
        </mxCell>
        <mxCell id="Kyu8l-b_ZJ1D1ARl4iH5-4" value="&lt;font style=&quot;font-size: 15px;&quot;&gt;雪糕店铺首页&lt;/font&gt;" style="rounded=0;whiteSpace=wrap;html=1;fillColor=#d5e8d4;strokeColor=#82b366;" vertex="1" parent="1">
          <mxGeometry x="320" y="200" width="120" height="60" as="geometry" />
        </mxCell>
        <mxCell id="Kyu8l-b_ZJ1D1ARl4iH5-5" value="&lt;font style=&quot;font-size: 15px;&quot;&gt;会员注册&lt;/font&gt;" style="rounded=0;whiteSpace=wrap;html=1;fillColor=#d5e8d4;strokeColor=#82b366;" vertex="1" parent="1">
          <mxGeometry x="480" y="200" width="120" height="60" as="geometry" />
        </mxCell>
        <mxCell id="Kyu8l-b_ZJ1D1ARl4iH5-6" value="" style="endArrow=none;html=1;rounded=0;fontSize=15;entryX=0.5;entryY=1;entryDx=0;entryDy=0;exitX=0.5;exitY=0;exitDx=0;exitDy=0;" edge="1" parent="1" source="Kyu8l-b_ZJ1D1ARl4iH5-3" target="Kyu8l-b_ZJ1D1ARl4iH5-1">
          <mxGeometry width="50" height="50" relative="1" as="geometry">
            <mxPoint x="240" y="110" as="sourcePoint" />
            <mxPoint x="290" y="60" as="targetPoint" />
            <Array as="points">
              <mxPoint x="220" y="150" />
              <mxPoint x="380" y="150" />
            </Array>
          </mxGeometry>
        </mxCell>
        <mxCell id="Kyu8l-b_ZJ1D1ARl4iH5-11" style="edgeStyle=none;rounded=0;orthogonalLoop=1;jettySize=auto;html=1;exitX=1;exitY=0.5;exitDx=0;exitDy=0;entryX=0;entryY=0.5;entryDx=0;entryDy=0;fontSize=15;endArrow=classic;endFill=1;" edge="1" parent="1" source="Kyu8l-b_ZJ1D1ARl4iH5-9" target="Kyu8l-b_ZJ1D1ARl4iH5-10">
          <mxGeometry relative="1" as="geometry" />
        </mxCell>
        <mxCell id="Kyu8l-b_ZJ1D1ARl4iH5-13" style="edgeStyle=none;rounded=0;orthogonalLoop=1;jettySize=auto;html=1;exitX=0.5;exitY=1;exitDx=0;exitDy=0;fontSize=15;endArrow=classic;endFill=1;" edge="1" parent="1" source="Kyu8l-b_ZJ1D1ARl4iH5-9" target="Kyu8l-b_ZJ1D1ARl4iH5-12">
          <mxGeometry relative="1" as="geometry" />
        </mxCell>
        <mxCell id="Kyu8l-b_ZJ1D1ARl4iH5-9" value="登录&lt;br&gt;login.html" style="rounded=0;whiteSpace=wrap;html=1;fontSize=15;fillColor=#d5e8d4;strokeColor=#82b366;" vertex="1" parent="1">
          <mxGeometry x="100" y="420" width="120" height="60" as="geometry" />
        </mxCell>
        <mxCell id="Kyu8l-b_ZJ1D1ARl4iH5-10" value="雪糕店铺首页&lt;br&gt;index.html" style="rounded=0;whiteSpace=wrap;html=1;fontSize=15;fillColor=#d5e8d4;strokeColor=#82b366;" vertex="1" parent="1">
          <mxGeometry x="320" y="420" width="120" height="60" as="geometry" />
        </mxCell>
        <mxCell id="Kyu8l-b_ZJ1D1ARl4iH5-14" style="edgeStyle=none;rounded=0;orthogonalLoop=1;jettySize=auto;html=1;exitX=0;exitY=0.5;exitDx=0;exitDy=0;entryX=0;entryY=0.5;entryDx=0;entryDy=0;fontSize=15;endArrow=classic;endFill=1;" edge="1" parent="1" source="Kyu8l-b_ZJ1D1ARl4iH5-12" target="Kyu8l-b_ZJ1D1ARl4iH5-9">
          <mxGeometry relative="1" as="geometry">
            <Array as="points">
              <mxPoint x="40" y="615" />
              <mxPoint x="40" y="450" />
            </Array>
          </mxGeometry>
        </mxCell>
        <mxCell id="Kyu8l-b_ZJ1D1ARl4iH5-12" value="注册&lt;br&gt;regist.html" style="rounded=0;whiteSpace=wrap;html=1;fontSize=15;fillColor=#d5e8d4;strokeColor=#82b366;" vertex="1" parent="1">
          <mxGeometry x="100" y="585" width="120" height="60" as="geometry" />
        </mxCell>
      </root>
    </mxGraphModel>
  </diagram>
</mxfile>
